<?xml version="1.0" encoding="UTF-8"?>
<svg version="1.1" xmlns="http://www.w3.org/2000/svg" width="2000" height="2000">
<path d="M0 0 C660 0 1320 0 2000 0 C2000 660 2000 1320 2000 2000 C1340 2000 680 2000 0 2000 C0 1340 0 680 0 0 Z " fill="#EAEAEA" transform="translate(0,0)"/>
<path d="M0 0 C7.68586215 7.60409766 14.79622646 15.64161616 21.5859375 24.05078125 C24.33861873 27.4136847 27.16181769 30.70929569 30 34 C34.29995131 38.98921019 38.50486032 44.04221923 42.65625 49.15625 C45.39302049 52.47686486 48.1910295 55.74046782 51 59 C55.29972713 63.98940767 59.50485409 69.04221156 63.65625 74.15625 C66.39302049 77.47686486 69.1910295 80.74046782 72 84 C76.29972713 88.98940767 80.50485409 94.04221156 84.65625 99.15625 C87.39302049 102.47686486 90.1910295 105.74046782 93 109 C97.29972713 113.98940767 101.50485409 119.04221156 105.65625 124.15625 C108.39302049 127.47686486 111.1910295 130.74046782 114 134 C118.29972713 138.98940767 122.50485409 144.04221156 126.65625 149.15625 C129.39302049 152.47686486 132.1910295 155.74046782 135 159 C139.29972713 163.98940767 143.50485409 169.04221156 147.65625 174.15625 C150.39302049 177.47686486 153.1910295 180.74046782 156 184 C160.29972713 188.98940767 164.50485409 194.04221156 168.65625 199.15625 C171.39302049 202.47686486 174.1910295 205.74046782 177 209 C181.29972713 213.98940767 185.50485409 219.04221156 189.65625 224.15625 C192.39302049 227.47686486 195.1910295 230.74046782 198 234 C202.29972713 238.98940767 206.50485409 244.04221156 210.65625 249.15625 C213.39302049 252.47686486 216.1910295 255.74046782 219 259 C222.55453161 263.12468204 226.06792143 267.27207712 229.5 271.5 C233.88712902 276.90076172 238.41223412 282.174677 242.94921875 287.44921875 C249.19427321 294.71031003 255.3963115 302.00553429 261.4375 309.4375 C265.39508188 314.30129025 269.46542446 319.05881231 273.55834961 323.80834961 C277.33334391 328.1980035 281.00728461 332.66114771 284.65625 337.15625 C287.39302049 340.47686486 290.1910295 343.74046782 293 347 C297.29972713 351.98940767 301.50485409 357.04221156 305.65625 362.15625 C308.39302049 365.47686486 311.1910295 368.74046782 314 372 C317.55453161 376.12468204 321.06792143 380.27207712 324.5 384.5 C328.88712902 389.90076172 333.41223412 395.174677 337.94921875 400.44921875 C344.19427321 407.71031003 350.3963115 415.00553429 356.4375 422.4375 C360.39508188 427.30129025 364.46542446 432.05881231 368.55834961 436.80834961 C372.33334391 441.1980035 376.00728461 445.66114771 379.65625 450.15625 C382.39302049 453.47686486 385.1910295 456.74046782 388 460 C392.29972713 464.98940767 396.50485409 470.04221156 400.65625 475.15625 C403.39302049 478.47686486 406.1910295 481.74046782 409 485 C413.29972713 489.98940767 417.50485409 495.04221156 421.65625 500.15625 C424.39302049 503.47686486 427.1910295 506.74046782 430 510 C434.29972713 514.98940767 438.50485409 520.04221156 442.65625 525.15625 C445.39302049 528.47686486 448.1910295 531.74046782 451 535 C454.55453161 539.12468204 458.06792143 543.27207712 461.5 547.5 C465.88712902 552.90076172 470.41223412 558.174677 474.94921875 563.44921875 C481.19427321 570.71031003 487.3963115 578.00553429 493.4375 585.4375 C497.39508188 590.30129025 501.46542446 595.05881231 505.55834961 599.80834961 C509.33334391 604.1980035 513.00728461 608.66114771 516.65625 613.15625 C519.39302049 616.47686486 522.1910295 619.74046782 525 623 C529.29972713 627.98940767 533.50485409 633.04221156 537.65625 638.15625 C540.39302049 641.47686486 543.1910295 644.74046782 546 648 C550.29972713 652.98940767 554.50485409 658.04221156 558.65625 663.15625 C561.39302049 666.47686486 564.1910295 669.74046782 567 673 C570.55453161 677.12468204 574.06792143 681.27207712 577.5 685.5 C581.88712902 690.90076172 586.41223412 696.174677 590.94921875 701.44921875 C598.75941294 710.5300896 606.45181057 719.69988512 614 729 C612.41648321 733.35725862 609.02057775 735.82286356 605.5625 738.6875 C604.93214844 739.21859375 604.30179688 739.7496875 603.65234375 740.296875 C599.08849553 744.13087705 594.47142314 747.89966827 589.84375 751.65625 C586.52313514 754.39302049 583.25953218 757.1910295 580 760 C575.01059233 764.29972713 569.95778844 768.50485409 564.84375 772.65625 C561.52313514 775.39302049 558.25953218 778.1910295 555 781 C550.01059233 785.29972713 544.95778844 789.50485409 539.84375 793.65625 C536.52313514 796.39302049 533.25953218 799.1910295 530 802 C525.01059233 806.29972713 519.95778844 810.50485409 514.84375 814.65625 C511.52313514 817.39302049 508.25953218 820.1910295 505 823 C500.01059233 827.29972713 494.95778844 831.50485409 489.84375 835.65625 C486.52313514 838.39302049 483.25953218 841.1910295 480 844 C475.01059233 848.29972713 469.95778844 852.50485409 464.84375 856.65625 C461.52313514 859.39302049 458.25953218 862.1910295 455 865 C450.01059233 869.29972713 444.95778844 873.50485409 439.84375 877.65625 C436.52313514 880.39302049 433.25953218 883.1910295 430 886 C425.01059233 890.29972713 419.95778844 894.50485409 414.84375 898.65625 C411.52313514 901.39302049 408.25953218 904.1910295 405 907 C400.01059233 911.29972713 394.95778844 915.50485409 389.84375 919.65625 C386.52313514 922.39302049 383.25953218 925.1910295 380 928 C375.87531796 931.55453161 371.72792288 935.06792143 367.5 938.5 C362.09923828 942.88712902 356.825323 947.41223412 351.55078125 951.94921875 C343.39306869 958.96543122 335.16767644 965.88984919 326.8203125 972.6796875 C324.21174181 974.8257969 321.63158914 977.00033662 319.06005859 979.19042969 C316.38191299 981.47046208 313.69258226 983.73704811 311 986 C310.1028125 986.75539063 309.205625 987.51078125 308.28125 988.2890625 C307.4871875 988.93617188 306.693125 989.58328125 305.875 990.25 C305.19179687 990.81203125 304.50859375 991.3740625 303.8046875 991.953125 C303.20914063 992.29859375 302.61359375 992.6440625 302 993 C298.29983605 991.76661202 297.45296966 990.36179556 295.0625 987.3125 C291.45921284 982.79520829 287.77892676 978.37127637 284 974 C279.69942817 969.01133668 275.49512234 963.9577594 271.34375 958.84375 C268.60697862 955.52313406 265.80893615 952.25956291 263 949 C258.67827137 943.98408311 254.44520804 938.90824701 250.26953125 933.76953125 C245.91494206 928.45558334 241.44921565 923.23473234 237 918 C231.80780978 911.89111965 226.61876419 905.78489359 221.5625 899.5625 C217.60491812 894.69870975 213.53457554 889.94118769 209.44165039 885.19165039 C205.66665609 880.8019965 201.99271539 876.33885229 198.34375 871.84375 C195.60697951 868.52313514 192.8089705 865.25953218 190 862 C185.70027287 857.01059233 181.49514591 851.95778844 177.34375 846.84375 C174.60697951 843.52313514 171.8089705 840.25953218 169 837 C164.70027287 832.01059233 160.49514591 826.95778844 156.34375 821.84375 C153.60697951 818.52313514 150.8089705 815.25953218 148 812 C143.70027287 807.01059233 139.49514591 801.95778844 135.34375 796.84375 C132.60697951 793.52313514 129.8089705 790.25953218 127 787 C122.70027287 782.01059233 118.49514591 776.95778844 114.34375 771.84375 C111.60697951 768.52313514 108.8089705 765.25953218 106 762 C102.44546839 757.87531796 98.93207857 753.72792288 95.5 749.5 C91.11287098 744.09923828 86.58776588 738.825323 82.05078125 733.55078125 C75.80572679 726.28968997 69.6036885 718.99446571 63.5625 711.5625 C59.60491812 706.69870975 55.53457554 701.94118769 51.44165039 697.19165039 C47.66665609 692.8019965 43.99271539 688.33885229 40.34375 683.84375 C37.60697951 680.52313514 34.8089705 677.25953218 32 674 C27.70027287 669.01059233 23.49514591 663.95778844 19.34375 658.84375 C16.60697951 655.52313514 13.8089705 652.25953218 11 649 C6.70027287 644.01059233 2.49514591 638.95778844 -1.65625 633.84375 C-4.39302049 630.52313514 -7.1910295 627.25953218 -10 624 C-14.29972713 619.01059233 -18.50485409 613.95778844 -22.65625 608.84375 C-25.39302138 605.52313406 -28.19106385 602.25956291 -31 599 C-35.32172863 593.98408311 -39.55479196 588.90824701 -43.73046875 583.76953125 C-48.08505794 578.45558334 -52.55078435 573.23473234 -57 568 C-62.19219022 561.89111965 -67.38123581 555.78489359 -72.4375 549.5625 C-76.39508188 544.69870975 -80.46542446 539.94118769 -84.55834961 535.19165039 C-88.33334391 530.8019965 -92.00728461 526.33885229 -95.65625 521.84375 C-98.39302049 518.52313514 -101.1910295 515.25953218 -104 512 C-108.29972713 507.01059233 -112.50485409 501.95778844 -116.65625 496.84375 C-119.39302049 493.52313514 -122.1910295 490.25953218 -125 487 C-129.29972713 482.01059233 -133.50485409 476.95778844 -137.65625 471.84375 C-140.39302049 468.52313514 -143.1910295 465.25953218 -146 462 C-150.29972713 457.01059233 -154.50485409 451.95778844 -158.65625 446.84375 C-161.39302049 443.52313514 -164.1910295 440.25953218 -167 437 C-171.29972713 432.01059233 -175.50485409 426.95778844 -179.65625 421.84375 C-182.39302138 418.52313406 -185.19106385 415.25956291 -188 412 C-192.32172863 406.98408311 -196.55479196 401.90824701 -200.73046875 396.76953125 C-205.08505794 391.45558334 -209.55078435 386.23473234 -214 381 C-219.19219022 374.89111965 -224.38123581 368.78489359 -229.4375 362.5625 C-233.39508188 357.69870975 -237.46542446 352.94118769 -241.55834961 348.19165039 C-245.324156 343.81268042 -248.99763828 339.36825055 -252.6171875 334.8671875 C-254.45644378 332.65404962 -256.32618778 330.51306761 -258.2578125 328.3828125 C-258.81533203 327.75955078 -259.37285156 327.13628906 -259.94726562 326.49414062 C-261.04549789 325.27061527 -262.15583124 324.05781904 -263.27929688 322.85742188 C-266.97674452 318.71034929 -266.97674452 318.71034929 -267.0859375 315.375 C-265.77020599 312.49742892 -264.19653935 310.65543496 -262 308.375 C-258.68985623 304.84487832 -255.53379253 301.27087593 -252.5 297.5 C-249.5918662 293.9052235 -246.61458668 290.41739372 -243.5 287 C-239.68317927 282.80807792 -236.09345269 278.47525923 -232.53125 274.06640625 C-228.97861432 269.76267322 -225.30195956 265.56956675 -221.60449219 261.38989258 C-218.96042547 258.37489271 -216.50524711 255.3551001 -214.234375 252.046875 C-213.49703125 251.04140625 -212.7596875 250.0359375 -212 249 C-211.34 249 -210.68 249 -210 249 C-209.7421875 248.43796875 -209.484375 247.8759375 -209.21875 247.296875 C-207.85830223 244.73295421 -206.27211038 242.54773635 -204.5 240.25 C-203.58734375 239.05117188 -203.58734375 239.05117188 -202.65625 237.828125 C-202.1096875 237.22484375 -201.563125 236.6215625 -201 236 C-200.34 236 -199.68 236 -199 236 C-198.7421875 235.43796875 -198.484375 234.8759375 -198.21875 234.296875 C-196.85830223 231.73295421 -195.27211038 229.54773635 -193.5 227.25 C-192.8915625 226.45078125 -192.283125 225.6515625 -191.65625 224.828125 C-191.1096875 224.22484375 -190.563125 223.6215625 -190 223 C-189.34 223 -188.68 223 -188 223 C-187.75378906 222.43410156 -187.50757813 221.86820313 -187.25390625 221.28515625 C-185.78463776 218.60751742 -184.02247565 216.66956388 -181.9375 214.4375 C-178.66981527 210.87703072 -175.53520807 207.2606708 -172.5 203.5 C-169.5918662 199.9052235 -166.61458668 196.41739372 -163.5 193 C-159.65563519 188.7771744 -156.03474466 184.41355427 -152.44140625 179.9765625 C-149.71469716 176.65215877 -146.9292704 173.38395641 -144.125 170.125 C-140.21168335 165.57704117 -136.30994767 161.02033578 -132.4375 156.4375 C-131.98777832 155.90527832 -131.53805664 155.37305664 -131.07470703 154.82470703 C-130.16931558 153.7528666 -129.26404183 152.68092674 -128.35888672 151.60888672 C-126.07453814 148.90427711 -123.78710492 146.20227873 -121.5 143.5 C-120.58331874 142.41667901 -119.66665207 141.33334568 -118.75 140.25 C-116.91666667 138.08333333 -115.08333333 135.91666667 -113.25 133.75 C-112.79633057 133.21383057 -112.34266113 132.67766113 -111.87524414 132.12524414 C-110.95782203 131.04104762 -110.04034148 129.95690055 -109.12280273 128.87280273 C-106.84221456 126.17807689 -104.56262185 123.48252188 -102.28515625 120.78515625 C-97.50591674 115.12729174 -92.7055149 109.48917257 -87.875 103.875 C-84.38184894 99.81371255 -80.93551604 95.72481413 -77.5625 91.5625 C-73.41939009 86.45692535 -69.1176955 81.50199947 -64.79711914 76.54711914 C-61.63534162 72.91262149 -58.53149794 69.24479157 -55.5 65.5 C-51.42242873 60.46651459 -47.19494085 55.57666691 -42.94189453 50.69189453 C-38.0212235 45.03735121 -33.17218901 39.32527914 -28.34277344 33.59277344 C-26.06578557 30.89185183 -23.78252465 28.19624236 -21.5 25.5 C-20.59112397 24.42579975 -19.68226984 23.35158097 -18.7734375 22.27734375 C-16.86259286 20.019011 -14.95103334 17.76128559 -13.0390625 15.50390625 C-12.55115234 14.92769531 -12.06324219 14.35148438 -11.56054688 13.7578125 C-10.63755936 12.6678082 -9.71439677 11.57795211 -8.79101562 10.48828125 C-5.84318219 7.00651756 -2.91693125 3.50763597 0 0 Z " fill="#1F7CC0" transform="translate(1208,505)"/>
<path d="M0 0 C3.80390519 3.70672513 7.31185382 7.57870831 10.75 11.625 C11.27585693 12.24109131 11.80171387 12.85718262 12.34350586 13.49194336 C16.19931431 18.0231192 19.97837869 22.61303179 23.73046875 27.23046875 C28.08505794 32.54441666 32.55078435 37.76526766 37 43 C42.19219022 49.10888035 47.38123581 55.21510641 52.4375 61.4375 C55.89274151 65.68392382 59.42697834 69.85296294 63 74 C67.31928956 79.01319488 71.55097119 84.0853732 75.72265625 89.22265625 C78.28203972 92.34396267 80.88589916 95.42453424 83.5 98.5 C86.85447127 102.44650481 90.17221829 106.41642072 93.4375 110.4375 C97.84913055 115.85570579 102.39323642 121.1527085 106.94921875 126.44921875 C113.19427321 133.71031003 119.3963115 141.00553429 125.4375 148.4375 C129.39508188 153.30129025 133.46542446 158.05881231 137.55834961 162.80834961 C141.33334391 167.1980035 145.00728461 171.66114771 148.65625 176.15625 C151.39302049 179.47686486 154.1910295 182.74046782 157 186 C161.29972713 190.98940767 165.50485409 196.04221156 169.65625 201.15625 C172.39302049 204.47686486 175.1910295 207.74046782 178 211 C182.29972713 215.98940767 186.50485409 221.04221156 190.65625 226.15625 C193.39302049 229.47686486 196.1910295 232.74046782 199 236 C203.29972713 240.98940767 207.50485409 246.04221156 211.65625 251.15625 C214.39302049 254.47686486 217.1910295 257.74046782 220 261 C224.29972713 265.98940767 228.50485409 271.04221156 232.65625 276.15625 C235.39302049 279.47686486 238.1910295 282.74046782 241 286 C245.29972713 290.98940767 249.50485409 296.04221156 253.65625 301.15625 C256.39302049 304.47686486 259.1910295 307.74046782 262 311 C266.29972713 315.98940767 270.50485409 321.04221156 274.65625 326.15625 C277.39302049 329.47686486 280.1910295 332.74046782 283 336 C287.29972713 340.98940767 291.50485409 346.04221156 295.65625 351.15625 C298.39302049 354.47686486 301.1910295 357.74046782 304 361 C308.29972713 365.98940767 312.50485409 371.04221156 316.65625 376.15625 C319.39302138 379.47686594 322.19106385 382.74043709 325 386 C329.31814961 391.01176298 333.54906686 396.08218382 337.71875 401.21875 C340.29843332 404.36384336 342.9265234 407.46461794 345.5625 410.5625 C359 426.38195293 359 426.38195293 359 428 C339.2 428 319.4 428 299 428 C299 453.08 299 478.16 299 504 C101.33 504 -96.34 504 -300 504 C-300 478.92 -300 453.84 -300 428 C-320.46 428 -340.92 428 -362 428 C-355.32116788 419.09489051 -355.32116788 419.09489051 -351.6875 415.1875 C-347.77808547 410.90669109 -344.09556071 406.48980277 -340.44921875 401.984375 C-337.68189402 398.61238761 -334.84856535 395.3033143 -332 392 C-328.46385091 387.89773502 -324.97136492 383.77197907 -321.5625 379.5625 C-317.46084729 374.51145932 -313.21408989 369.59871604 -308.94213867 364.69213867 C-304.02133926 359.03755469 -299.17226279 353.32536671 -294.34277344 347.59277344 C-292.06578569 344.89185198 -289.7825781 342.19619693 -287.5 339.5 C-284.76018685 336.26301005 -282.02104448 333.02546464 -279.28515625 329.78515625 C-275.01414475 324.7289534 -270.73267338 319.68289634 -266.41577148 314.66577148 C-262.38932429 309.98600755 -258.39285776 305.2922906 -254.5 300.5 C-250.10937717 295.09493724 -245.58087403 289.81676248 -241.0390625 284.5390625 C-238.17403045 281.20834905 -235.33327978 277.85773359 -232.5 274.5 C-228.64959801 269.93686994 -224.76956071 265.40047831 -220.875 260.875 C-217.38180518 256.8137519 -213.93551449 252.72481221 -210.5625 248.5625 C-206.46084729 243.51145932 -202.21408989 238.59871604 -197.94213867 233.69213867 C-193.02133926 228.03755469 -188.17226279 222.32536671 -183.34277344 216.59277344 C-181.06578545 213.89185169 -178.78246994 211.19628885 -176.5 208.5 C-176.04753906 207.96503906 -175.59507812 207.43007812 -175.12890625 206.87890625 C-172.81529904 204.14344473 -170.49948681 201.40990052 -168.1796875 198.6796875 C-163.94920376 193.69685653 -159.7414632 188.70297285 -155.625 183.625 C-151.49933962 178.55633153 -147.23325073 173.62077957 -142.94238281 168.69238281 C-138.02145503 163.03775817 -133.17233657 157.32545429 -128.34277344 151.59277344 C-126.06578561 148.89185188 -123.78254206 146.19622756 -121.5 143.5 C-120.58330416 142.41669135 -119.66663747 141.33335804 -118.75 140.25 C-105.91666667 125.08333333 -93.08333333 109.91666667 -80.25 94.75 C-79.79633057 94.21383057 -79.34266113 93.67766113 -78.87524414 93.12524414 C-77.95782203 92.04104762 -77.04034148 90.95690055 -76.12280273 89.87280273 C-73.84221456 87.17807689 -71.56262185 84.48252188 -69.28515625 81.78515625 C-65.01414475 76.7289534 -60.73267338 71.68289634 -56.41577148 66.66577148 C-52.38932429 61.98600755 -48.39285776 57.2922906 -44.5 52.5 C-38.62596304 45.2712302 -32.51941302 38.24297133 -26.43847656 31.18847656 C-20.55258156 24.35670012 -14.73116176 17.48991184 -9.046875 10.48828125 C-6.11197816 6.92047727 -3.07328331 3.44879703 0 0 Z " fill="#CFD1D2" transform="translate(940,821)"/>
<path d="M0 0 C133.65 0 267.3 0 405 0 C405 24.42 405 48.84 405 74 C271.35 74 137.7 74 0 74 C0 49.58 0 25.16 0 0 Z " fill="#D0D2D3" transform="translate(737,1326)"/>
<path d="M0 0 C84.81 0 169.62 0 257 0 C257 24.42 257 48.84 257 74 C172.19 74 87.38 74 0 74 C0 49.58 0 25.16 0 0 Z " fill="#D0D2D3" transform="translate(812,1401)"/>
<path d="M0 0 C6.11905835 4.35394537 11.61543662 9.21653638 17.1015625 14.32421875 C19.48516742 16.52471656 21.90239039 18.65159759 24.375 20.75 C36.22391049 31.20922346 43.98215667 46.21750509 45.15527344 62.10253906 C46.17267766 81.4668524 41.58716674 97.98272497 28.625 112.6875 C26.95006638 114.54621506 25.26555428 116.39562533 23.57617188 118.24121094 C20.49779447 121.67625288 17.66827508 125.31117731 14.8046875 128.92578125 C13 131 13 131 10 133 C-7.186841 118.17348517 -7.186841 118.17348517 -15 111 C-15.886875 110.195625 -16.77375 109.39125 -17.6875 108.5625 C-31.18327544 93.60772181 -35.08260831 76.0344648 -34.19970703 56.43701172 C-32.63270647 37.31500733 -20.59146211 24.01081796 -8.56835938 10.26489258 C-5.62893433 6.90383598 -2.75764883 3.51399427 0 0 Z " fill="#2F94C7" transform="translate(487,730)"/>
<path d="M0 0 C3.34031068 2.65556137 6.52293091 5.47659051 9.69287109 8.33154297 C13.08561539 11.32476385 16.66318109 14.09855009 20.19677734 16.92236328 C22.24365234 18.69970703 22.24365234 18.69970703 23.24365234 20.69970703 C-8.19836615 61.26416802 -8.19836615 61.26416802 -32.37744141 66.29736328 C-49.75882426 68.36705396 -66.96473744 66.89935814 -81.75634766 56.69970703 C-85.02152978 54.10249737 -88.18287378 51.41868789 -91.31884766 48.66845703 C-94.96469449 45.48152798 -98.75040464 42.48859697 -102.56884766 39.51220703 C-103.49467651 38.78964722 -103.49467651 38.78964722 -104.43920898 38.05249023 C-105.87665405 36.93283719 -107.31624922 35.81594525 -108.75634766 34.69970703 C-105.62199986 29.8037185 -102.12996416 25.31626496 -98.44384766 20.82470703 C-97.86425293 20.11652832 -97.2846582 19.40834961 -96.6875 18.67871094 C-95.04846642 16.68178566 -93.40403843 14.68949182 -91.75634766 12.69970703 C-91.04349609 11.83861328 -90.33064453 10.97751953 -89.59619141 10.09033203 C-67.36025544 -16.04575671 -27.59138571 -20.42698364 0 0 Z " fill="#3094C8" transform="translate(603.75634765625,687.30029296875)"/>
<path d="M0 0 C2.59592193 2.03846434 5.11411107 4.14667813 7.625 6.2890625 C8.72732264 7.21809133 9.83021604 8.14644324 10.93359375 9.07421875 C13.14321503 10.93537935 15.34757256 12.80244133 17.546875 14.67578125 C20.55459762 17.23581148 23.58703938 19.76500839 26.625 22.2890625 C24.33492222 27.42690539 20.5491666 31.41372755 16.96191406 35.68896484 C15.58656765 37.3350606 14.22631087 38.99283788 12.8671875 40.65234375 C1.61104288 54.3170084 -12.06484687 66.18723477 -30.375 68.2890625 C-53.21174777 70.08237766 -69.91955302 65.36142843 -87.4375 50.4140625 C-89.76518786 48.38922538 -92.07353822 46.34362674 -94.375 44.2890625 C-95.16511475 43.58571777 -95.16511475 43.58571777 -95.97119141 42.86816406 C-98.78706084 40.35771723 -101.58826549 37.83179721 -104.375 35.2890625 C-102.72327856 31.37212309 -100.07153676 28.39726954 -97.3125 25.2265625 C-93.70824 21.04826666 -90.21309238 16.82446276 -86.8125 12.4765625 C-81.06726047 5.41341856 -74.02439979 0.13990139 -66.375 -4.7109375 C-65.385 -5.3709375 -64.395 -6.0309375 -63.375 -6.7109375 C-42.30118697 -13.45652718 -18.59347643 -13.39464256 0 0 Z " fill="#2F94C7" transform="translate(424.375,879.7109375)"/>
<path d="M0 0 C4.17284401 0.50448891 5.98879713 1.54567771 8.8125 4.625 C11.41249783 7.36107248 14.01650968 9.97169117 16.875 12.4375 C17.53242188 13.01242187 18.18984375 13.58734375 18.8671875 14.1796875 C20.37015228 15.46243766 21.89899205 16.71517259 23.4453125 17.9453125 C36.24451997 28.55260676 42.77226004 44.08817527 44.74609375 60.39453125 C45.88606232 76.58208492 41.9963248 94.0408407 31.52294922 106.79931641 C28.29552813 110.47404503 24.90739705 113.98518471 21.48144531 117.47412109 C19.54592993 119.46768918 17.70092712 121.53101124 15.875 123.625 C15.37742187 124.19476562 14.87984375 124.76453125 14.3671875 125.3515625 C12.84436927 127.18764619 11.41626869 129.08091403 10 131 C5.42845584 129.75321523 3.04639873 127.23290061 -0.125 123.91796875 C-1.95056728 122.05056555 -3.83785991 120.33290443 -5.8125 118.625 C-6.47765625 118.04621094 -7.1428125 117.46742187 -7.828125 116.87109375 C-9.37191912 115.54109846 -10.92502258 114.22187566 -12.484375 112.91015625 C-26.52147618 100.80847356 -33.84000735 85.24302839 -35.25 66.71484375 C-35.43698323 57.09689376 -35.45947659 46.19566816 -30 38 C-29.43023437 37.01644531 -28.86046875 36.03289063 -28.2734375 35.01953125 C-23.85360279 27.55310266 -19.00408876 21.30754451 -13 15 C-11.76278804 13.6112927 -10.53305521 12.21586965 -9.3125 10.8125 C-8.76078125 10.17957031 -8.2090625 9.54664063 -7.640625 8.89453125 C-5.0818636 5.93977106 -2.53863911 2.9720653 0 0 Z " fill="#2E93C7" transform="translate(313,926)"/>
<path d="M0 0 C3.63 0 7.26 0 11 0 C7.57360692 4.70133003 4.23473064 9.01437117 0 13 C0 8.71 0 4.42 0 0 Z " fill="#CDCECF" transform="translate(453,751)"/>
<path d="M0 0 C2.97 0 5.94 0 9 0 C9 3.63 9 7.26 9 11 C5.36440339 7.56638098 2.63886654 4.2026393 0 0 Z " fill="#CAD0D2" transform="translate(1416,751)"/>
</svg>
